<svg width="2800" height="1000" viewBox="0 0 2800 1000" fill="none" xmlns="http://www.w3.org/2000/svg">
<path d="M1075.53 664.717V673.743H995.584L874.372 609.27L898.872 571.874L1075.53 664.717ZM890.653 544.79C890.653 553.816 885.977 568.645 879.529 578.316C871.792 589.922 869.626 596.369 847.292 609.264C829.424 619.58 759.898 656.545 727.369 673.738H650V666.002C691.693 642.791 782.901 596.364 804.739 580.896C835.686 558.975 838.266 556.395 838.266 544.79V508.684H890.653V544.79ZM750.58 583.479H699.001L661.605 511.269H713.186L750.58 583.479ZM1025.24 583.479H973.662L1011.06 511.269H1062.64L1025.24 583.479ZM1027.82 323C1047.16 323 1062.64 335.895 1062.64 357.816V457.107C1062.64 481.607 1044.58 494.502 1022.66 494.502H657.738V454.528H1002.03C1009.77 454.528 1011.06 446.791 1011.06 440.344V374.58C1011.06 366.843 1009.77 362.975 999.452 362.975H657.738V324.29C774.652 323.86 1012.35 323 1027.82 323ZM994.294 428.735H671.922V390.051H994.294V428.735Z" fill="black"/>
<path d="M1457.22 568.001C1457.22 574.448 1457.22 574.448 1455.93 586.054C1454.9 595.338 1448.62 626.027 1445.61 640.212H1486.88L1476.56 574.448H1516.54C1520.86 597.229 1530.26 645.628 1533.3 656.976C1537.1 671.16 1526.85 677.607 1519.12 677.607H1409.51C1399.19 677.607 1395.32 669.871 1396.61 662.134C1397.9 654.397 1404.35 614.423 1406.93 600.238C1409.51 586.054 1409.51 579.606 1409.51 568.001V388.762H1457.22V568.001ZM1602.93 367.806H1557.8L1608.09 676.32H1561.67L1511.38 367.806H1394.04C1377.27 367.806 1370.82 371.646 1370.82 388.288V581.59C1370.82 593.111 1371.35 598.232 1368.25 609.753C1365.76 618.97 1355.17 657.972 1350.19 676.32H1303.77C1308.41 658.825 1318.51 620.762 1321.82 608.473C1325.97 593.111 1324.4 594.391 1324.4 581.59V367.806C1324.4 342.203 1352.77 323 1379.85 323H1602.93V367.806ZM1245.74 355.237L1271.53 324.289H1326.98L1271.53 391.343C1275.83 396.071 1284.43 408.88 1284.43 422.29V600.24C1284.43 618.293 1285.05 613.135 1280.56 629.898C1276.97 643.309 1261.01 666.433 1253.48 676.319H1192.87C1207.06 659.126 1235.43 621.903 1235.43 610.556V551.239L1173.53 626.029V565.424L1235.43 481.607V432.606L1173.53 503.528V442.922L1216.08 393.922L1167.08 324.289H1223.82L1245.74 355.237Z" fill="black"/>
<path d="M2067.15 482.9C2085.2 482.901 2099.38 491.927 2099.38 506.111V562.849C2099.38 574.454 2089.07 586.059 2067.15 586.06H1933.04V604.11H2100.67V629.9H1933.04V645.374H2123.89V676.321H1693.2V645.374H1886.62V629.9H1716.41V604.11H1886.62V586.06H1740.91C1724.14 586.059 1716.41 573.164 1716.41 562.849V506.111C1716.41 493.217 1729.56 482.901 1740.91 482.9H2067.15ZM1933.04 547.374V560.273H2038.78C2051.67 560.273 2054.25 554.761 2054.25 549.249V547.374H1933.04ZM1762.83 549.249C1762.83 554.149 1761.68 560.273 1774.43 560.273H1886.62V547.374H1762.83V549.249ZM1933.04 521.585H2054.24C2053.97 515.26 2049.97 511.274 2038.78 511.273H1933.04V521.585ZM1774.43 511.273C1766.14 511.274 1763.07 515.797 1762.84 521.585H1886.62V511.273H1774.43ZM2123.89 470H1693.2V439.052H2123.89V470ZM2067.15 325.582C2085.2 325.582 2099.38 334.609 2099.38 348.793V405.53C2099.38 417.136 2089.07 428.741 2067.15 428.741H1740.91C1724.14 428.741 1716.41 415.846 1716.41 405.53V348.793C1716.41 335.898 1729.56 325.582 1740.91 325.582H2067.15ZM1774.43 353.948C1765.8 353.948 1762.83 358.848 1762.83 364.973V391.924C1762.83 396.824 1761.68 402.948 1774.43 402.948H2038.78C2051.67 402.948 2054.25 397.436 2054.25 391.924V364.973C2054.25 358.235 2050.38 353.948 2038.78 353.948H1774.43ZM2033.62 390.057H1783.46V364.267H2033.62V390.057Z" fill="black"/>
<path d="M2276.54 444.211H2319.89L2319.89 676.319H2270.89V453.089L2250.25 485.475H2198.68L2300.54 325.578H2352.12L2276.54 444.211ZM2459.15 615.713C2459.15 626.029 2466.89 631.187 2475.92 631.187H2642.26V676.319H2456.57C2430.78 676.319 2410.15 651.818 2410.15 633.766V326.867H2459.15V615.713Z" fill="black"/>
<path d="M2634.52 418.421L2474.63 520.291V468.711L2634.52 366.842V418.421Z" fill="#FF991F"/>
<path d="M211 426.942V261.467C211 257.343 214.343 254.022 218.433 254.554C230.549 256.131 250.514 261.414 269.653 274.655C290.113 288.811 302.081 308.512 307.084 320.14C308.37 323.127 311.228 325.235 314.48 325.235H366.551C369.875 325.235 372.785 323.037 374.049 319.963C378.161 309.963 387.59 293.188 403.866 278.628C420.524 263.726 447.466 257.028 464.142 254.794C468.406 254.223 472.03 257.632 472.03 261.934V427.665C472.03 431.789 468.694 435.129 464.576 435.338C445.93 436.283 413.682 440.709 390.921 453.404C372.313 463.782 357.399 479.045 348.107 490.722C344.31 495.493 335.784 495.048 332.272 490.063C324.84 479.511 312.305 465.568 293.959 453.404C270.37 437.762 238.082 434.404 219.165 434.717C214.77 434.789 211 431.337 211 426.942Z" fill="#FF991F"/>
<path d="M211.247 590.674L211.247 482.54C211.247 478.416 214.591 475.066 218.712 475.215C245.69 476.188 271.727 483.073 295.658 509.393C323.971 540.533 336.937 570.354 392.241 570.354L437.225 570.354C503.907 570.354 550.215 620.759 550.215 682.776L550.215 747.65C550.215 754.821 541.259 757.744 536.525 752.358C523.226 737.231 501.546 718.93 471.36 718.93L336.937 718.93C261.258 718.93 211.247 669.463 211.247 590.674Z" fill="#FF991F"/>
</svg>

